<svg width="142" height="28" viewBox="0 0 142 28" fill="none" xmlns="http://www.w3.org/2000/svg">
<path d="M81.6139 25.7784V23.1364C81.6139 21.735 81.0572 20.3909 80.0662 19.4C79.0753 18.409 77.7312 17.8523 76.3298 17.8523H65.7616C64.3602 17.8523 63.0162 18.409 62.0252 19.4C61.0343 20.3909 60.4775 21.735 60.4775 23.1364V25.7784" stroke="#5CA720" stroke-width="2.46591" stroke-linecap="round" stroke-linejoin="round"/>
<path d="M71.0458 12.5682C73.9641 12.5682 76.3299 10.2024 76.3299 7.28409C76.3299 4.36577 73.9641 2 71.0458 2C68.1275 2 65.7617 4.36577 65.7617 7.28409C65.7617 10.2024 68.1275 12.5682 71.0458 12.5682Z" stroke="#5CA720" stroke-width="2.46591" stroke-linecap="round" stroke-linejoin="round"/>
<path d="M126.641 24.2894C127.172 24.2894 127.602 23.8593 127.602 23.3287C127.602 22.7981 127.172 22.3679 126.641 22.3679C126.11 22.3679 125.68 22.7981 125.68 23.3287C125.68 23.8593 126.11 24.2894 126.641 24.2894Z" stroke="#5CA720" stroke-width="2.46591" stroke-linecap="round" stroke-linejoin="round"/>
<path d="M137.209 24.2894C137.74 24.2894 138.17 23.8593 138.17 23.3287C138.17 22.7981 137.74 22.3679 137.209 22.3679C136.679 22.3679 136.249 22.7981 136.249 23.3287C136.249 23.8593 136.679 24.2894 137.209 24.2894Z" stroke="#5CA720" stroke-width="2.46591" stroke-linecap="round" stroke-linejoin="round"/>
<path d="M118.955 4.11353H122.798L125.373 16.9779C125.46 17.4202 125.701 17.8175 126.052 18.1003C126.404 18.3831 126.843 18.5333 127.294 18.5247H136.633C137.083 18.5333 137.523 18.3831 137.874 18.1003C138.226 17.8175 138.466 17.4202 138.554 16.9779L140.091 8.91724H123.759" stroke="#5CA720" stroke-width="2.46591" stroke-linecap="round" stroke-linejoin="round"/>
<path d="M10.1023 19.6137C14.577 19.6137 18.2045 15.9862 18.2045 11.5115C18.2045 7.03669 14.577 3.40918 10.1023 3.40918C5.62751 3.40918 2 7.03669 2 11.5115C2 15.9862 5.62751 19.6137 10.1023 19.6137Z" stroke="#5CA720" stroke-width="2.12684" stroke-linecap="round" stroke-linejoin="round"/>
<path d="M23.1365 24.5455L16.0911 17.5" stroke="#5CA720" stroke-width="2.46591" stroke-linecap="round" stroke-linejoin="round"/>
</svg>
